<svg viewBox="-35.86816721314465 -8.452365234813989 134.9497539288839 310.9104744650403" xmlns="http://www.w3.org/2000/svg"> 
  <line x1="0" y1="0" x2="10.0" y2="0.0" stroke-width="1" stroke="black" /> 
  <line x1="10.0" y1="0.0" x2="10.0" y2="0.0" stroke-width="1" stroke="black" /> 
  <line x1="10.0" y1="0.0" x2="10.0" y2="0.0" stroke-width="1" stroke="black" /> 
  <line x1="10.0" y1="0.0" x2="10.0" y2="0.0" stroke-width="1" stroke="black" /> 
  <line x1="10.0" y1="0.0" x2="19.0630778703665" y2="4.2261826174069945" stroke-width="1" stroke="black" /> 
  <line x1="19.0630778703665" y1="4.2261826174069945" x2="19.0630778703665" y2="4.2261826174069945" stroke-width="1" stroke="black" /> 
  <line x1="10.0" y1="0.0" x2="10.0" y2="0.0" stroke-width="1" stroke="black" /> 
  <line x1="10.0" y1="0.0" x2="20.0" y2="0.0" stroke-width="1" stroke="black" /> 
  <line x1="20.0" y1="0.0" x2="20.0" y2="0.0" stroke-width="1" stroke="black" /> 
  <line x1="10.0" y1="0.0" x2="10.0" y2="0.0" stroke-width="1" stroke="black" /> 
  <line x1="10.0" y1="0.0" x2="20.0" y2="0.0" stroke-width="1" stroke="black" /> 
  <line x1="20.0" y1="0.0" x2="20.0" y2="0.0" stroke-width="1" stroke="black" /> 
  <line x1="20.0" y1="0.0" x2="20.0" y2="0.0" stroke-width="1" stroke="black" /> 
  <line x1="20.0" y1="0.0" x2="29.0630778703665" y2="-4.2261826174069945" stroke-width="1" stroke="black" /> 
  <line x1="29.0630778703665" y1="-4.2261826174069945" x2="38.126155740733" y2="-8.452365234813989" stroke-width="1" stroke="black" /> 
  <line x1="38.126155740733" y1="-8.452365234813989" x2="38.126155740733" y2="-8.452365234813989" stroke-width="1" stroke="black" /> 
  <line x1="20.0" y1="0.0" x2="20.0" y2="0.0" stroke-width="1" stroke="black" /> 
  <line x1="20.0" y1="0.0" x2="29.0630778703665" y2="4.2261826174069945" stroke-width="1" stroke="black" /> 
  <line x1="29.0630778703665" y1="4.2261826174069945" x2="38.126155740733" y2="8.452365234813989" stroke-width="1" stroke="black" /> 
  <line x1="38.126155740733" y1="8.452365234813989" x2="47.189233611099496" y2="12.678547852220984" stroke-width="1" stroke="black" /> 
  <line x1="47.189233611099496" y1="12.678547852220984" x2="47.189233611099496" y2="12.678547852220984" stroke-width="1" stroke="black" /> 
  <line x1="47.189233611099496" y1="12.678547852220984" x2="47.189233611099496" y2="12.678547852220984" stroke-width="1" stroke="black" /> 
  <line x1="47.189233611099496" y1="12.678547852220984" x2="47.189233611099496" y2="12.678547852220984" stroke-width="1" stroke="black" /> 
  <line x1="47.189233611099496" y1="12.678547852220984" x2="53.617109707964886" y2="20.338992283410764" stroke-width="1" stroke="black" /> 
  <line x1="53.617109707964886" y1="20.338992283410764" x2="53.617109707964886" y2="20.338992283410764" stroke-width="1" stroke="black" /> 
  <line x1="53.617109707964886" y1="20.338992283410764" x2="53.617109707964886" y2="20.338992283410764" stroke-width="1" stroke="black" /> 
  <line x1="53.617109707964886" y1="20.338992283410764" x2="53.617109707964886" y2="20.338992283410764" stroke-width="1" stroke="black" /> 
  <line x1="53.617109707964886" y1="20.338992283410764" x2="56.20530015899009" y2="29.99825054630145" stroke-width="1" stroke="black" /> 
  <line x1="56.20530015899009" y1="29.99825054630145" x2="56.20530015899009" y2="29.99825054630145" stroke-width="1" stroke="black" /> 
  <line x1="53.617109707964886" y1="20.338992283410764" x2="53.617109707964886" y2="20.338992283410764" stroke-width="1" stroke="black" /> 
  <line x1="53.617109707964886" y1="20.338992283410764" x2="60.044985804830276" y2="27.999436714600545" stroke-width="1" stroke="black" /> 
  <line x1="60.044985804830276" y1="27.999436714600545" x2="60.044985804830276" y2="27.999436714600545" stroke-width="1" stroke="black" /> 
  <line x1="53.617109707964886" y1="20.338992283410764" x2="53.617109707964886" y2="20.338992283410764" stroke-width="1" stroke="black" /> 
  <line x1="53.617109707964886" y1="20.338992283410764" x2="60.044985804830276" y2="27.999436714600545" stroke-width="1" stroke="black" /> 
  <line x1="60.044985804830276" y1="27.999436714600545" x2="60.044985804830276" y2="27.999436714600545" stroke-width="1" stroke="black" /> 
  <line x1="60.044985804830276" y1="27.999436714600545" x2="60.044985804830276" y2="27.999436714600545" stroke-width="1" stroke="black" /> 
  <line x1="60.044985804830276" y1="27.999436714600545" x2="69.10806367519677" y2="32.22561933200754" stroke-width="1" stroke="black" /> 
  <line x1="69.10806367519677" y1="32.22561933200754" x2="78.17114154556327" y2="36.45180194941454" stroke-width="1" stroke="black" /> 
  <line x1="78.17114154556327" y1="36.45180194941454" x2="78.17114154556327" y2="36.45180194941454" stroke-width="1" stroke="black" /> 
  <line x1="60.044985804830276" y1="27.999436714600545" x2="60.044985804830276" y2="27.999436714600545" stroke-width="1" stroke="black" /> 
  <line x1="60.044985804830276" y1="27.999436714600545" x2="62.63317625585548" y2="37.65869497749123" stroke-width="1" stroke="black" /> 
  <line x1="62.63317625585548" y1="37.65869497749123" x2="62.63317625585548" y2="37.65869497749123" stroke-width="1" stroke="black" /> 
  <line x1="47.189233611099496" y1="12.678547852220984" x2="47.189233611099496" y2="12.678547852220984" stroke-width="1" stroke="black" /> 
  <line x1="47.189233611099496" y1="12.678547852220984" x2="56.252311481465995" y2="16.904730469627978" stroke-width="1" stroke="black" /> 
  <line x1="56.252311481465995" y1="16.904730469627978" x2="56.252311481465995" y2="16.904730469627978" stroke-width="1" stroke="black" /> 
  <line x1="56.252311481465995" y1="16.904730469627978" x2="56.252311481465995" y2="16.904730469627978" stroke-width="1" stroke="black" /> 
  <line x1="56.252311481465995" y1="16.904730469627978" x2="56.252311481465995" y2="16.904730469627978" stroke-width="1" stroke="black" /> 
  <line x1="56.252311481465995" y1="16.904730469627978" x2="62.680187578331385" y2="24.56517490081776" stroke-width="1" stroke="black" /> 
  <line x1="62.680187578331385" y1="24.56517490081776" x2="62.680187578331385" y2="24.56517490081776" stroke-width="1" stroke="black" /> 
  <line x1="56.252311481465995" y1="16.904730469627978" x2="56.252311481465995" y2="16.904730469627978" stroke-width="1" stroke="black" /> 
  <line x1="56.252311481465995" y1="16.904730469627978" x2="65.3153893518325" y2="21.130913087034973" stroke-width="1" stroke="black" /> 
  <line x1="65.3153893518325" y1="21.130913087034973" x2="65.3153893518325" y2="21.130913087034973" stroke-width="1" stroke="black" /> 
  <line x1="56.252311481465995" y1="16.904730469627978" x2="56.252311481465995" y2="16.904730469627978" stroke-width="1" stroke="black" /> 
  <line x1="56.252311481465995" y1="16.904730469627978" x2="65.3153893518325" y2="21.130913087034973" stroke-width="1" stroke="black" /> 
  <line x1="65.3153893518325" y1="21.130913087034973" x2="65.3153893518325" y2="21.130913087034973" stroke-width="1" stroke="black" /> 
  <line x1="65.3153893518325" y1="21.130913087034973" x2="65.3153893518325" y2="21.130913087034973" stroke-width="1" stroke="black" /> 
  <line x1="65.3153893518325" y1="21.130913087034973" x2="75.3153893518325" y2="21.130913087034973" stroke-width="1" stroke="black" /> 
  <line x1="75.3153893518325" y1="21.130913087034973" x2="85.3153893518325" y2="21.130913087034973" stroke-width="1" stroke="black" /> 
  <line x1="85.3153893518325" y1="21.130913087034973" x2="85.3153893518325" y2="21.130913087034973" stroke-width="1" stroke="black" /> 
  <line x1="65.3153893518325" y1="21.130913087034973" x2="65.3153893518325" y2="21.130913087034973" stroke-width="1" stroke="black" /> 
  <line x1="65.3153893518325" y1="21.130913087034973" x2="71.74326544869788" y2="28.791357518224753" stroke-width="1" stroke="black" /> 
  <line x1="71.74326544869788" y1="28.791357518224753" x2="71.74326544869788" y2="28.791357518224753" stroke-width="1" stroke="black" /> 
  <line x1="47.189233611099496" y1="12.678547852220984" x2="47.189233611099496" y2="12.678547852220984" stroke-width="1" stroke="black" /> 
  <line x1="47.189233611099496" y1="12.678547852220984" x2="56.252311481465995" y2="16.904730469627978" stroke-width="1" stroke="black" /> 
  <line x1="56.252311481465995" y1="16.904730469627978" x2="65.3153893518325" y2="21.130913087034973" stroke-width="1" stroke="black" /> 
  <line x1="65.3153893518325" y1="21.130913087034973" x2="65.3153893518325" y2="21.130913087034973" stroke-width="1" stroke="black" /> 
  <line x1="65.3153893518325" y1="21.130913087034973" x2="65.3153893518325" y2="21.130913087034973" stroke-width="1" stroke="black" /> 
  <line x1="65.3153893518325" y1="21.130913087034973" x2="75.3153893518325" y2="21.130913087034973" stroke-width="1" stroke="black" /> 
  <line x1="75.3153893518325" y1="21.130913087034973" x2="85.3153893518325" y2="21.130913087034973" stroke-width="1" stroke="black" /> 
  <line x1="85.3153893518325" y1="21.130913087034973" x2="95.3153893518325" y2="21.130913087034973" stroke-width="1" stroke="black" /> 
  <line x1="95.3153893518325" y1="21.130913087034973" x2="95.3153893518325" y2="21.130913087034973" stroke-width="1" stroke="black" /> 
  <line x1="95.3153893518325" y1="21.130913087034973" x2="95.3153893518325" y2="21.130913087034973" stroke-width="1" stroke="black" /> 
  <line x1="95.3153893518325" y1="21.130913087034973" x2="95.3153893518325" y2="21.130913087034973" stroke-width="1" stroke="black" /> 
  <line x1="95.3153893518325" y1="21.130913087034973" x2="104.37846722219899" y2="25.357095704441967" stroke-width="1" stroke="black" /> 
  <line x1="104.37846722219899" y1="25.357095704441967" x2="104.37846722219899" y2="25.357095704441967" stroke-width="1" stroke="black" /> 
  <line x1="95.3153893518325" y1="21.130913087034973" x2="95.3153893518325" y2="21.130913087034973" stroke-width="1" stroke="black" /> 
  <line x1="95.3153893518325" y1="21.130913087034973" x2="105.3153893518325" y2="21.130913087034973" stroke-width="1" stroke="black" /> 
  <line x1="105.3153893518325" y1="21.130913087034973" x2="105.3153893518325" y2="21.130913087034973" stroke-width="1" stroke="black" /> 
  <line x1="95.3153893518325" y1="21.130913087034973" x2="95.3153893518325" y2="21.130913087034973" stroke-width="1" stroke="black" /> 
  <line x1="95.3153893518325" y1="21.130913087034973" x2="105.3153893518325" y2="21.130913087034973" stroke-width="1" stroke="black" /> 
  <line x1="105.3153893518325" y1="21.130913087034973" x2="105.3153893518325" y2="21.130913087034973" stroke-width="1" stroke="black" /> 
  <line x1="105.3153893518325" y1="21.130913087034973" x2="105.3153893518325" y2="21.130913087034973" stroke-width="1" stroke="black" /> 
  <line x1="105.3153893518325" y1="21.130913087034973" x2="114.37846722219899" y2="16.904730469627978" stroke-width="1" stroke="black" /> 
  <line x1="114.37846722219899" y1="16.904730469627978" x2="123.44154509256549" y2="12.678547852220984" stroke-width="1" stroke="black" /> 
  <line x1="123.44154509256549" y1="12.678547852220984" x2="123.44154509256549" y2="12.678547852220984" stroke-width="1" stroke="black" /> 
  <line x1="105.3153893518325" y1="21.130913087034973" x2="105.3153893518325" y2="21.130913087034973" stroke-width="1" stroke="black" /> 
  <line x1="105.3153893518325" y1="21.130913087034973" x2="114.37846722219899" y2="25.357095704441967" stroke-width="1" stroke="black" /> 
  <line x1="114.37846722219899" y1="25.357095704441967" x2="114.37846722219899" y2="25.357095704441967" stroke-width="1" stroke="black" /> 
  <line x1="65.3153893518325" y1="21.130913087034973" x2="65.3153893518325" y2="21.130913087034973" stroke-width="1" stroke="black" /> 
  <line x1="65.3153893518325" y1="21.130913087034973" x2="71.74326544869788" y2="28.791357518224753" stroke-width="1" stroke="black" /> 
  <line x1="71.74326544869788" y1="28.791357518224753" x2="71.74326544869788" y2="28.791357518224753" stroke-width="1" stroke="black" /> 
  <line x1="71.74326544869788" y1="28.791357518224753" x2="71.74326544869788" y2="28.791357518224753" stroke-width="1" stroke="black" /> 
  <line x1="71.74326544869788" y1="28.791357518224753" x2="71.74326544869788" y2="28.791357518224753" stroke-width="1" stroke="black" /> 
  <line x1="71.74326544869788" y1="28.791357518224753" x2="74.3314558997231" y2="38.45061578111544" stroke-width="1" stroke="black" /> 
  <line x1="74.3314558997231" y1="38.45061578111544" x2="74.3314558997231" y2="38.45061578111544" stroke-width="1" stroke="black" /> 
  <line x1="71.74326544869788" y1="28.791357518224753" x2="71.74326544869788" y2="28.791357518224753" stroke-width="1" stroke="black" /> 
  <line x1="71.74326544869788" y1="28.791357518224753" x2="78.17114154556327" y2="36.45180194941453" stroke-width="1" stroke="black" /> 
  <line x1="78.17114154556327" y1="36.45180194941453" x2="78.17114154556327" y2="36.45180194941453" stroke-width="1" stroke="black" /> 
  <line x1="71.74326544869788" y1="28.791357518224753" x2="71.74326544869788" y2="28.791357518224753" stroke-width="1" stroke="black" /> 
  <line x1="71.74326544869788" y1="28.791357518224753" x2="78.17114154556327" y2="36.45180194941453" stroke-width="1" stroke="black" /> 
  <line x1="78.17114154556327" y1="36.45180194941453" x2="78.17114154556327" y2="36.45180194941453" stroke-width="1" stroke="black" /> 
  <line x1="78.17114154556327" y1="36.45180194941453" x2="78.17114154556327" y2="36.45180194941453" stroke-width="1" stroke="black" /> 
  <line x1="78.17114154556327" y1="36.45180194941453" x2="87.23421941592977" y2="40.67798456682153" stroke-width="1" stroke="black" /> 
  <line x1="87.23421941592977" y1="40.67798456682153" x2="96.29729728629627" y2="44.90416718422853" stroke-width="1" stroke="black" /> 
  <line x1="96.29729728629627" y1="44.90416718422853" x2="96.29729728629627" y2="44.90416718422853" stroke-width="1" stroke="black" /> 
  <line x1="78.17114154556327" y1="36.45180194941453" x2="78.17114154556327" y2="36.45180194941453" stroke-width="1" stroke="black" /> 
  <line x1="78.17114154556327" y1="36.45180194941453" x2="80.75933199658849" y2="46.11106021230521" stroke-width="1" stroke="black" /> 
  <line x1="80.75933199658849" y1="46.11106021230521" x2="83.3475224476137" y2="55.77031847519589" stroke-width="1" stroke="black" /> 
  <line x1="83.3475224476137" y1="55.77031847519589" x2="85.93571289863891" y2="65.42957673808658" stroke-width="1" stroke="black" /> 
  <line x1="85.93571289863891" y1="65.42957673808658" x2="85.93571289863891" y2="65.42957673808658" stroke-width="1" stroke="black" /> 
  <line x1="85.93571289863891" y1="65.42957673808658" x2="85.93571289863891" y2="65.42957673808658" stroke-width="1" stroke="black" /> 
  <line x1="85.93571289863891" y1="65.42957673808658" x2="85.93571289863891" y2="65.42957673808658" stroke-width="1" stroke="black" /> 
  <line x1="85.93571289863891" y1="65.42957673808658" x2="84.1992311219696" y2="75.27765426820866" stroke-width="1" stroke="black" /> 
  <line x1="84.1992311219696" y1="75.27765426820866" x2="84.1992311219696" y2="75.27765426820866" stroke-width="1" stroke="black" /> 
  <line x1="84.1992311219696" y1="75.27765426820866" x2="84.1992311219696" y2="75.27765426820866" stroke-width="1" stroke="black" /> 
  <line x1="84.1992311219696" y1="75.27765426820866" x2="84.1992311219696" y2="75.27765426820866" stroke-width="1" stroke="black" /> 
  <line x1="84.1992311219696" y1="75.27765426820866" x2="78.46346675845915" y2="83.46917471109859" stroke-width="1" stroke="black" /> 
  <line x1="78.46346675845915" y1="83.46917471109859" x2="78.46346675845915" y2="83.46917471109859" stroke-width="1" stroke="black" /> 
  <line x1="84.1992311219696" y1="75.27765426820866" x2="84.1992311219696" y2="75.27765426820866" stroke-width="1" stroke="black" /> 
  <line x1="84.1992311219696" y1="75.27765426820866" x2="82.4627493453003" y2="85.12573179833075" stroke-width="1" stroke="black" /> 
  <line x1="82.4627493453003" y1="85.12573179833075" x2="82.4627493453003" y2="85.12573179833075" stroke-width="1" stroke="black" /> 
  <line x1="84.1992311219696" y1="75.27765426820866" x2="84.1992311219696" y2="75.27765426820866" stroke-width="1" stroke="black" /> 
  <line x1="84.1992311219696" y1="75.27765426820866" x2="82.4627493453003" y2="85.12573179833075" stroke-width="1" stroke="black" /> 
  <line x1="82.4627493453003" y1="85.12573179833075" x2="82.4627493453003" y2="85.12573179833075" stroke-width="1" stroke="black" /> 
  <line x1="82.4627493453003" y1="85.12573179833075" x2="82.4627493453003" y2="85.12573179833075" stroke-width="1" stroke="black" /> 
  <line x1="82.4627493453003" y1="85.12573179833075" x2="85.0509397963255" y2="94.78499006122144" stroke-width="1" stroke="black" /> 
  <line x1="85.0509397963255" y1="94.78499006122144" x2="87.63913024735069" y2="104.44424832411212" stroke-width="1" stroke="black" /> 
  <line x1="87.63913024735069" y1="104.44424832411212" x2="87.63913024735069" y2="104.44424832411212" stroke-width="1" stroke="black" /> 
  <line x1="82.4627493453003" y1="85.12573179833075" x2="82.4627493453003" y2="85.12573179833075" stroke-width="1" stroke="black" /> 
  <line x1="82.4627493453003" y1="85.12573179833075" x2="76.72698498178984" y2="93.31725224122067" stroke-width="1" stroke="black" /> 
  <line x1="76.72698498178984" y1="93.31725224122067" x2="76.72698498178984" y2="93.31725224122067" stroke-width="1" stroke="black" /> 
  <line x1="85.93571289863891" y1="65.42957673808658" x2="85.93571289863891" y2="65.42957673808658" stroke-width="1" stroke="black" /> 
  <line x1="85.93571289863891" y1="65.42957673808658" x2="88.52390334966412" y2="75.08883500097727" stroke-width="1" stroke="black" /> 
  <line x1="88.52390334966412" y1="75.08883500097727" x2="88.52390334966412" y2="75.08883500097727" stroke-width="1" stroke="black" /> 
  <line x1="88.52390334966412" y1="75.08883500097727" x2="88.52390334966412" y2="75.08883500097727" stroke-width="1" stroke="black" /> 
  <line x1="88.52390334966412" y1="75.08883500097727" x2="88.52390334966412" y2="75.08883500097727" stroke-width="1" stroke="black" /> 
  <line x1="88.52390334966412" y1="75.08883500097727" x2="86.78742157299482" y2="84.93691253109935" stroke-width="1" stroke="black" /> 
  <line x1="86.78742157299482" y1="84.93691253109935" x2="86.78742157299482" y2="84.93691253109935" stroke-width="1" stroke="black" /> 
  <line x1="88.52390334966412" y1="75.08883500097727" x2="88.52390334966412" y2="75.08883500097727" stroke-width="1" stroke="black" /> 
  <line x1="88.52390334966412" y1="75.08883500097727" x2="91.11209380068934" y2="84.74809326386796" stroke-width="1" stroke="black" /> 
  <line x1="91.11209380068934" y1="84.74809326386796" x2="91.11209380068934" y2="84.74809326386796" stroke-width="1" stroke="black" /> 
  <line x1="88.52390334966412" y1="75.08883500097727" x2="88.52390334966412" y2="75.08883500097727" stroke-width="1" stroke="black" /> 
  <line x1="88.52390334966412" y1="75.08883500097727" x2="91.11209380068934" y2="84.74809326386796" stroke-width="1" stroke="black" /> 
  <line x1="91.11209380068934" y1="84.74809326386796" x2="91.11209380068934" y2="84.74809326386796" stroke-width="1" stroke="black" /> 
  <line x1="91.11209380068934" y1="84.74809326386796" x2="91.11209380068934" y2="84.74809326386796" stroke-width="1" stroke="black" /> 
  <line x1="91.11209380068934" y1="84.74809326386796" x2="97.53996989755473" y2="92.40853769505773" stroke-width="1" stroke="black" /> 
  <line x1="97.53996989755473" y1="92.40853769505773" x2="103.96784599442012" y2="100.0689821262475" stroke-width="1" stroke="black" /> 
  <line x1="103.96784599442012" y1="100.0689821262475" x2="103.96784599442012" y2="100.0689821262475" stroke-width="1" stroke="black" /> 
  <line x1="91.11209380068934" y1="84.74809326386796" x2="91.11209380068934" y2="84.74809326386796" stroke-width="1" stroke="black" /> 
  <line x1="91.11209380068934" y1="84.74809326386796" x2="89.37561202402003" y2="94.59617079399004" stroke-width="1" stroke="black" /> 
  <line x1="89.37561202402003" y1="94.59617079399004" x2="89.37561202402003" y2="94.59617079399004" stroke-width="1" stroke="black" /> 
  <line x1="85.93571289863891" y1="65.42957673808658" x2="85.93571289863891" y2="65.42957673808658" stroke-width="1" stroke="black" /> 
  <line x1="85.93571289863891" y1="65.42957673808658" x2="88.52390334966412" y2="75.08883500097727" stroke-width="1" stroke="black" /> 
  <line x1="88.52390334966412" y1="75.08883500097727" x2="91.11209380068934" y2="84.74809326386796" stroke-width="1" stroke="black" /> 
  <line x1="91.11209380068934" y1="84.74809326386796" x2="91.11209380068934" y2="84.74809326386796" stroke-width="1" stroke="black" /> 
  <line x1="91.11209380068934" y1="84.74809326386796" x2="91.11209380068934" y2="84.74809326386796" stroke-width="1" stroke="black" /> 
  <line x1="91.11209380068934" y1="84.74809326386796" x2="97.53996989755473" y2="92.40853769505773" stroke-width="1" stroke="black" /> 
  <line x1="97.53996989755473" y1="92.40853769505773" x2="103.96784599442012" y2="100.0689821262475" stroke-width="1" stroke="black" /> 
  <line x1="103.96784599442012" y1="100.0689821262475" x2="110.3957220912855" y2="107.72942655743728" stroke-width="1" stroke="black" /> 
  <line x1="110.3957220912855" y1="107.72942655743728" x2="110.3957220912855" y2="107.72942655743728" stroke-width="1" stroke="black" /> 
  <line x1="110.3957220912855" y1="107.72942655743728" x2="110.3957220912855" y2="107.72942655743728" stroke-width="1" stroke="black" /> 
  <line x1="110.3957220912855" y1="107.72942655743728" x2="110.3957220912855" y2="107.72942655743728" stroke-width="1" stroke="black" /> 
  <line x1="110.3957220912855" y1="107.72942655743728" x2="112.98391254231072" y2="117.38868482032797" stroke-width="1" stroke="black" /> 
  <line x1="112.98391254231072" y1="117.38868482032797" x2="112.98391254231072" y2="117.38868482032797" stroke-width="1" stroke="black" /> 
  <line x1="110.3957220912855" y1="107.72942655743728" x2="110.3957220912855" y2="107.72942655743728" stroke-width="1" stroke="black" /> 
  <line x1="110.3957220912855" y1="107.72942655743728" x2="116.8235981881509" y2="115.38987098862705" stroke-width="1" stroke="black" /> 
  <line x1="116.8235981881509" y1="115.38987098862705" x2="116.8235981881509" y2="115.38987098862705" stroke-width="1" stroke="black" /> 
  <line x1="110.3957220912855" y1="107.72942655743728" x2="110.3957220912855" y2="107.72942655743728" stroke-width="1" stroke="black" /> 
  <line x1="110.3957220912855" y1="107.72942655743728" x2="116.8235981881509" y2="115.38987098862705" stroke-width="1" stroke="black" /> 
  <line x1="116.8235981881509" y1="115.38987098862705" x2="116.8235981881509" y2="115.38987098862705" stroke-width="1" stroke="black" /> 
  <line x1="116.8235981881509" y1="115.38987098862705" x2="116.8235981881509" y2="115.38987098862705" stroke-width="1" stroke="black" /> 
  <line x1="116.8235981881509" y1="115.38987098862705" x2="125.8866760585174" y2="119.61605360603404" stroke-width="1" stroke="black" /> 
  <line x1="125.8866760585174" y1="119.61605360603404" x2="134.9497539288839" y2="123.84223622344103" stroke-width="1" stroke="black" /> 
  <line x1="134.9497539288839" y1="123.84223622344103" x2="134.9497539288839" y2="123.84223622344103" stroke-width="1" stroke="black" /> 
  <line x1="116.8235981881509" y1="115.38987098862705" x2="116.8235981881509" y2="115.38987098862705" stroke-width="1" stroke="black" /> 
  <line x1="116.8235981881509" y1="115.38987098862705" x2="119.41178863917611" y2="125.04912925151774" stroke-width="1" stroke="black" /> 
  <line x1="119.41178863917611" y1="125.04912925151774" x2="119.41178863917611" y2="125.04912925151774" stroke-width="1" stroke="black" /> 
  <line x1="91.11209380068934" y1="84.74809326386796" x2="91.11209380068934" y2="84.74809326386796" stroke-width="1" stroke="black" /> 
  <line x1="91.11209380068934" y1="84.74809326386796" x2="89.37561202402003" y2="94.59617079399004" stroke-width="1" stroke="black" /> 
  <line x1="89.37561202402003" y1="94.59617079399004" x2="89.37561202402003" y2="94.59617079399004" stroke-width="1" stroke="black" /> 
  <line x1="89.37561202402003" y1="94.59617079399004" x2="89.37561202402003" y2="94.59617079399004" stroke-width="1" stroke="black" /> 
  <line x1="89.37561202402003" y1="94.59617079399004" x2="89.37561202402003" y2="94.59617079399004" stroke-width="1" stroke="black" /> 
  <line x1="89.37561202402003" y1="94.59617079399004" x2="83.63984766050957" y2="102.78769123687997" stroke-width="1" stroke="black" /> 
  <line x1="83.63984766050957" y1="102.78769123687997" x2="83.63984766050957" y2="102.78769123687997" stroke-width="1" stroke="black" /> 
  <line x1="89.37561202402003" y1="94.59617079399004" x2="89.37561202402003" y2="94.59617079399004" stroke-width="1" stroke="black" /> 
  <line x1="89.37561202402003" y1="94.59617079399004" x2="87.63913024735072" y2="104.44424832411212" stroke-width="1" stroke="black" /> 
  <line x1="87.63913024735072" y1="104.44424832411212" x2="87.63913024735072" y2="104.44424832411212" stroke-width="1" stroke="black" /> 
  <line x1="89.37561202402003" y1="94.59617079399004" x2="89.37561202402003" y2="94.59617079399004" stroke-width="1" stroke="black" /> 
  <line x1="89.37561202402003" y1="94.59617079399004" x2="87.63913024735072" y2="104.44424832411212" stroke-width="1" stroke="black" /> 
  <line x1="87.63913024735072" y1="104.44424832411212" x2="87.63913024735072" y2="104.44424832411212" stroke-width="1" stroke="black" /> 
  <line x1="87.63913024735072" y1="104.44424832411212" x2="87.63913024735072" y2="104.44424832411212" stroke-width="1" stroke="black" /> 
  <line x1="87.63913024735072" y1="104.44424832411212" x2="90.22732069837592" y2="114.10350658700281" stroke-width="1" stroke="black" /> 
  <line x1="90.22732069837592" y1="114.10350658700281" x2="92.81551114940112" y2="123.7627648498935" stroke-width="1" stroke="black" /> 
  <line x1="92.81551114940112" y1="123.7627648498935" x2="92.81551114940112" y2="123.7627648498935" stroke-width="1" stroke="black" /> 
  <line x1="87.63913024735072" y1="104.44424832411212" x2="87.63913024735072" y2="104.44424832411212" stroke-width="1" stroke="black" /> 
  <line x1="87.63913024735072" y1="104.44424832411212" x2="81.90336588384027" y2="112.63576876700205" stroke-width="1" stroke="black" /> 
  <line x1="81.90336588384027" y1="112.63576876700205" x2="76.16760152032981" y2="120.82728920989197" stroke-width="1" stroke="black" /> 
  <line x1="76.16760152032981" y1="120.82728920989197" x2="70.43183715681936" y2="129.0188096527819" stroke-width="1" stroke="black" /> 
  <line x1="70.43183715681936" y1="129.0188096527819" x2="64.6960727933089" y2="137.21033009567182" stroke-width="1" stroke="black" /> 
  <line x1="64.6960727933089" y1="137.21033009567182" x2="58.96030842979844" y2="145.40185053856175" stroke-width="1" stroke="black" /> 
  <line x1="58.96030842979844" y1="145.40185053856175" x2="58.96030842979844" y2="145.40185053856175" stroke-width="1" stroke="black" /> 
  <line x1="58.96030842979844" y1="145.40185053856175" x2="58.96030842979844" y2="145.40185053856175" stroke-width="1" stroke="black" /> 
  <line x1="58.96030842979844" y1="145.40185053856175" x2="58.96030842979844" y2="145.40185053856175" stroke-width="1" stroke="black" /> 
  <line x1="58.96030842979844" y1="145.40185053856175" x2="50.30005439195405" y2="150.40185053856175" stroke-width="1" stroke="black" /> 
  <line x1="50.30005439195405" y1="150.40185053856175" x2="41.63980035410966" y2="155.40185053856175" stroke-width="1" stroke="black" /> 
  <line x1="41.63980035410966" y1="155.40185053856175" x2="41.63980035410966" y2="155.40185053856175" stroke-width="1" stroke="black" /> 
  <line x1="41.63980035410966" y1="155.40185053856175" x2="41.63980035410966" y2="155.40185053856175" stroke-width="1" stroke="black" /> 
  <line x1="41.63980035410966" y1="155.40185053856175" x2="41.63980035410966" y2="155.40185053856175" stroke-width="1" stroke="black" /> 
  <line x1="41.63980035410966" y1="155.40185053856175" x2="31.677853373192207" y2="156.27340796603832" stroke-width="1" stroke="black" /> 
  <line x1="31.677853373192207" y1="156.27340796603832" x2="31.677853373192207" y2="156.27340796603832" stroke-width="1" stroke="black" /> 
  <line x1="31.677853373192207" y1="156.27340796603832" x2="31.677853373192207" y2="156.27340796603832" stroke-width="1" stroke="black" /> 
  <line x1="31.677853373192207" y1="156.27340796603832" x2="31.677853373192207" y2="156.27340796603832" stroke-width="1" stroke="black" /> 
  <line x1="31.677853373192207" y1="156.27340796603832" x2="22.28092716533312" y2="152.85320653278163" stroke-width="1" stroke="black" /> 
  <line x1="22.28092716533312" y1="152.85320653278163" x2="22.28092716533312" y2="152.85320653278163" stroke-width="1" stroke="black" /> 
  <line x1="31.677853373192207" y1="156.27340796603832" x2="31.677853373192207" y2="156.27340796603832" stroke-width="1" stroke="black" /> 
  <line x1="31.677853373192207" y1="156.27340796603832" x2="21.715906392274754" y2="157.1449653935149" stroke-width="1" stroke="black" /> 
  <line x1="21.715906392274754" y1="157.1449653935149" x2="21.715906392274754" y2="157.1449653935149" stroke-width="1" stroke="black" /> 
  <line x1="31.677853373192207" y1="156.27340796603832" x2="31.677853373192207" y2="156.27340796603832" stroke-width="1" stroke="black" /> 
  <line x1="31.677853373192207" y1="156.27340796603832" x2="21.715906392274754" y2="157.1449653935149" stroke-width="1" stroke="black" /> 
  <line x1="21.715906392274754" y1="157.1449653935149" x2="21.715906392274754" y2="157.1449653935149" stroke-width="1" stroke="black" /> 
  <line x1="21.715906392274754" y1="157.1449653935149" x2="21.715906392274754" y2="157.1449653935149" stroke-width="1" stroke="black" /> 
  <line x1="21.715906392274754" y1="157.1449653935149" x2="13.055652354430366" y2="162.1449653935149" stroke-width="1" stroke="black" /> 
  <line x1="13.055652354430366" y1="162.1449653935149" x2="4.395398316585979" y2="167.1449653935149" stroke-width="1" stroke="black" /> 
  <line x1="4.395398316585979" y1="167.1449653935149" x2="4.395398316585979" y2="167.1449653935149" stroke-width="1" stroke="black" /> 
  <line x1="21.715906392274754" y1="157.1449653935149" x2="21.715906392274754" y2="157.1449653935149" stroke-width="1" stroke="black" /> 
  <line x1="21.715906392274754" y1="157.1449653935149" x2="12.318980184415668" y2="153.7247639602582" stroke-width="1" stroke="black" /> 
  <line x1="12.318980184415668" y1="153.7247639602582" x2="12.318980184415668" y2="153.7247639602582" stroke-width="1" stroke="black" /> 
  <line x1="41.63980035410966" y1="155.40185053856175" x2="41.63980035410966" y2="155.40185053856175" stroke-width="1" stroke="black" /> 
  <line x1="41.63980035410966" y1="155.40185053856175" x2="32.97954631626527" y2="160.40185053856175" stroke-width="1" stroke="black" /> 
  <line x1="32.97954631626527" y1="160.40185053856175" x2="32.97954631626527" y2="160.40185053856175" stroke-width="1" stroke="black" /> 
  <line x1="32.97954631626527" y1="160.40185053856175" x2="32.97954631626527" y2="160.40185053856175" stroke-width="1" stroke="black" /> 
  <line x1="32.97954631626527" y1="160.40185053856175" x2="32.97954631626527" y2="160.40185053856175" stroke-width="1" stroke="black" /> 
  <line x1="32.97954631626527" y1="160.40185053856175" x2="23.017599335347818" y2="161.27340796603832" stroke-width="1" stroke="black" /> 
  <line x1="23.017599335347818" y1="161.27340796603832" x2="23.017599335347818" y2="161.27340796603832" stroke-width="1" stroke="black" /> 
  <line x1="32.97954631626527" y1="160.40185053856175" x2="32.97954631626527" y2="160.40185053856175" stroke-width="1" stroke="black" /> 
  <line x1="32.97954631626527" y1="160.40185053856175" x2="24.319292278420882" y2="165.40185053856175" stroke-width="1" stroke="black" /> 
  <line x1="24.319292278420882" y1="165.40185053856175" x2="24.319292278420882" y2="165.40185053856175" stroke-width="1" stroke="black" /> 
  <line x1="32.97954631626527" y1="160.40185053856175" x2="32.97954631626527" y2="160.40185053856175" stroke-width="1" stroke="black" /> 
  <line x1="32.97954631626527" y1="160.40185053856175" x2="24.319292278420882" y2="165.40185053856175" stroke-width="1" stroke="black" /> 
  <line x1="24.319292278420882" y1="165.40185053856175" x2="24.319292278420882" y2="165.40185053856175" stroke-width="1" stroke="black" /> 
  <line x1="24.319292278420882" y1="165.40185053856175" x2="24.319292278420882" y2="165.40185053856175" stroke-width="1" stroke="black" /> 
  <line x1="24.319292278420882" y1="165.40185053856175" x2="18.58352791491042" y2="173.59337098145167" stroke-width="1" stroke="black" /> 
  <line x1="18.58352791491042" y1="173.59337098145167" x2="12.847763551399957" y2="181.7848914243416" stroke-width="1" stroke="black" /> 
  <line x1="12.847763551399957" y1="181.7848914243416" x2="12.847763551399957" y2="181.7848914243416" stroke-width="1" stroke="black" /> 
  <line x1="24.319292278420882" y1="165.40185053856175" x2="24.319292278420882" y2="165.40185053856175" stroke-width="1" stroke="black" /> 
  <line x1="24.319292278420882" y1="165.40185053856175" x2="14.357345297503427" y2="166.27340796603832" stroke-width="1" stroke="black" /> 
  <line x1="14.357345297503427" y1="166.27340796603832" x2="14.357345297503427" y2="166.27340796603832" stroke-width="1" stroke="black" /> 
  <line x1="41.63980035410966" y1="155.40185053856175" x2="41.63980035410966" y2="155.40185053856175" stroke-width="1" stroke="black" /> 
  <line x1="41.63980035410966" y1="155.40185053856175" x2="32.97954631626527" y2="160.40185053856175" stroke-width="1" stroke="black" /> 
  <line x1="32.97954631626527" y1="160.40185053856175" x2="24.319292278420882" y2="165.40185053856175" stroke-width="1" stroke="black" /> 
  <line x1="24.319292278420882" y1="165.40185053856175" x2="24.319292278420882" y2="165.40185053856175" stroke-width="1" stroke="black" /> 
  <line x1="24.319292278420882" y1="165.40185053856175" x2="24.319292278420882" y2="165.40185053856175" stroke-width="1" stroke="black" /> 
  <line x1="24.319292278420882" y1="165.40185053856175" x2="18.58352791491042" y2="173.59337098145167" stroke-width="1" stroke="black" /> 
  <line x1="18.58352791491042" y1="173.59337098145167" x2="12.847763551399957" y2="181.7848914243416" stroke-width="1" stroke="black" /> 
  <line x1="12.847763551399957" y1="181.7848914243416" x2="7.111999187889496" y2="189.97641186723152" stroke-width="1" stroke="black" /> 
  <line x1="7.111999187889496" y1="189.97641186723152" x2="7.111999187889496" y2="189.97641186723152" stroke-width="1" stroke="black" /> 
  <line x1="7.111999187889496" y1="189.97641186723152" x2="7.111999187889496" y2="189.97641186723152" stroke-width="1" stroke="black" /> 
  <line x1="7.111999187889496" y1="189.97641186723152" x2="7.111999187889496" y2="189.97641186723152" stroke-width="1" stroke="black" /> 
  <line x1="7.111999187889496" y1="189.97641186723152" x2="-1.5482548499548914" y2="194.97641186723152" stroke-width="1" stroke="black" /> 
  <line x1="-1.5482548499548914" y1="194.97641186723152" x2="-1.5482548499548914" y2="194.97641186723152" stroke-width="1" stroke="black" /> 
  <line x1="7.111999187889496" y1="189.97641186723152" x2="7.111999187889496" y2="189.97641186723152" stroke-width="1" stroke="black" /> 
  <line x1="7.111999187889496" y1="189.97641186723152" x2="1.3762348243790345" y2="198.16793231012144" stroke-width="1" stroke="black" /> 
  <line x1="1.3762348243790345" y1="198.16793231012144" x2="1.3762348243790345" y2="198.16793231012144" stroke-width="1" stroke="black" /> 
  <line x1="7.111999187889496" y1="189.97641186723152" x2="7.111999187889496" y2="189.97641186723152" stroke-width="1" stroke="black" /> 
  <line x1="7.111999187889496" y1="189.97641186723152" x2="1.3762348243790345" y2="198.16793231012144" stroke-width="1" stroke="black" /> 
  <line x1="1.3762348243790345" y1="198.16793231012144" x2="1.3762348243790345" y2="198.16793231012144" stroke-width="1" stroke="black" /> 
  <line x1="1.3762348243790345" y1="198.16793231012144" x2="1.3762348243790345" y2="198.16793231012144" stroke-width="1" stroke="black" /> 
  <line x1="1.3762348243790345" y1="198.16793231012144" x2="-0.3602469522902707" y2="208.01600984024353" stroke-width="1" stroke="black" /> 
  <line x1="-0.3602469522902707" y1="208.01600984024353" x2="-2.096728728959576" y2="217.8640873703656" stroke-width="1" stroke="black" /> 
  <line x1="-2.096728728959576" y1="217.8640873703656" x2="-2.096728728959576" y2="217.8640873703656" stroke-width="1" stroke="black" /> 
  <line x1="1.3762348243790345" y1="198.16793231012144" x2="1.3762348243790345" y2="198.16793231012144" stroke-width="1" stroke="black" /> 
  <line x1="1.3762348243790345" y1="198.16793231012144" x2="-7.284019213465353" y2="203.16793231012144" stroke-width="1" stroke="black" /> 
  <line x1="-7.284019213465353" y1="203.16793231012144" x2="-7.284019213465353" y2="203.16793231012144" stroke-width="1" stroke="black" /> 
  <line x1="24.319292278420882" y1="165.40185053856175" x2="24.319292278420882" y2="165.40185053856175" stroke-width="1" stroke="black" /> 
  <line x1="24.319292278420882" y1="165.40185053856175" x2="14.357345297503427" y2="166.27340796603832" stroke-width="1" stroke="black" /> 
  <line x1="14.357345297503427" y1="166.27340796603832" x2="14.357345297503427" y2="166.27340796603832" stroke-width="1" stroke="black" /> 
  <line x1="14.357345297503427" y1="166.27340796603832" x2="14.357345297503427" y2="166.27340796603832" stroke-width="1" stroke="black" /> 
  <line x1="14.357345297503427" y1="166.27340796603832" x2="14.357345297503427" y2="166.27340796603832" stroke-width="1" stroke="black" /> 
  <line x1="14.357345297503427" y1="166.27340796603832" x2="4.960419089644342" y2="162.85320653278163" stroke-width="1" stroke="black" /> 
  <line x1="4.960419089644342" y1="162.85320653278163" x2="4.960419089644342" y2="162.85320653278163" stroke-width="1" stroke="black" /> 
  <line x1="14.357345297503427" y1="166.27340796603832" x2="14.357345297503427" y2="166.27340796603832" stroke-width="1" stroke="black" /> 
  <line x1="14.357345297503427" y1="166.27340796603832" x2="4.395398316585972" y2="167.1449653935149" stroke-width="1" stroke="black" /> 
  <line x1="4.395398316585972" y1="167.1449653935149" x2="4.395398316585972" y2="167.1449653935149" stroke-width="1" stroke="black" /> 
  <line x1="14.357345297503427" y1="166.27340796603832" x2="14.357345297503427" y2="166.27340796603832" stroke-width="1" stroke="black" /> 
  <line x1="14.357345297503427" y1="166.27340796603832" x2="4.395398316585972" y2="167.1449653935149" stroke-width="1" stroke="black" /> 
  <line x1="4.395398316585972" y1="167.1449653935149" x2="4.395398316585972" y2="167.1449653935149" stroke-width="1" stroke="black" /> 
  <line x1="4.395398316585972" y1="167.1449653935149" x2="4.395398316585972" y2="167.1449653935149" stroke-width="1" stroke="black" /> 
  <line x1="4.395398316585972" y1="167.1449653935149" x2="-4.2648557212584155" y2="172.1449653935149" stroke-width="1" stroke="black" /> 
  <line x1="-4.2648557212584155" y1="172.1449653935149" x2="-12.925109759102803" y2="177.1449653935149" stroke-width="1" stroke="black" /> 
  <line x1="-12.925109759102803" y1="177.1449653935149" x2="-12.925109759102803" y2="177.1449653935149" stroke-width="1" stroke="black" /> 
  <line x1="4.395398316585972" y1="167.1449653935149" x2="4.395398316585972" y2="167.1449653935149" stroke-width="1" stroke="black" /> 
  <line x1="4.395398316585972" y1="167.1449653935149" x2="-5.001527891273113" y2="163.7247639602582" stroke-width="1" stroke="black" /> 
  <line x1="-5.001527891273113" y1="163.7247639602582" x2="-5.001527891273113" y2="163.7247639602582" stroke-width="1" stroke="black" /> 
  <line x1="58.96030842979844" y1="145.40185053856175" x2="58.96030842979844" y2="145.40185053856175" stroke-width="1" stroke="black" /> 
  <line x1="58.96030842979844" y1="145.40185053856175" x2="53.224544066287976" y2="153.59337098145167" stroke-width="1" stroke="black" /> 
  <line x1="53.224544066287976" y1="153.59337098145167" x2="47.488779702777514" y2="161.7848914243416" stroke-width="1" stroke="black" /> 
  <line x1="47.488779702777514" y1="161.7848914243416" x2="47.488779702777514" y2="161.7848914243416" stroke-width="1" stroke="black" /> 
  <line x1="47.488779702777514" y1="161.7848914243416" x2="47.488779702777514" y2="161.7848914243416" stroke-width="1" stroke="black" /> 
  <line x1="47.488779702777514" y1="161.7848914243416" x2="47.488779702777514" y2="161.7848914243416" stroke-width="1" stroke="black" /> 
  <line x1="47.488779702777514" y1="161.7848914243416" x2="38.828525664933125" y2="166.7848914243416" stroke-width="1" stroke="black" /> 
  <line x1="38.828525664933125" y1="166.7848914243416" x2="38.828525664933125" y2="166.7848914243416" stroke-width="1" stroke="black" /> 
  <line x1="38.828525664933125" y1="166.7848914243416" x2="38.828525664933125" y2="166.7848914243416" stroke-width="1" stroke="black" /> 
  <line x1="38.828525664933125" y1="166.7848914243416" x2="38.828525664933125" y2="166.7848914243416" stroke-width="1" stroke="black" /> 
  <line x1="38.828525664933125" y1="166.7848914243416" x2="28.86657868401567" y2="167.65644885181817" stroke-width="1" stroke="black" /> 
  <line x1="28.86657868401567" y1="167.65644885181817" x2="28.86657868401567" y2="167.65644885181817" stroke-width="1" stroke="black" /> 
  <line x1="38.828525664933125" y1="166.7848914243416" x2="38.828525664933125" y2="166.7848914243416" stroke-width="1" stroke="black" /> 
  <line x1="38.828525664933125" y1="166.7848914243416" x2="30.168271627088735" y2="171.7848914243416" stroke-width="1" stroke="black" /> 
  <line x1="30.168271627088735" y1="171.7848914243416" x2="30.168271627088735" y2="171.7848914243416" stroke-width="1" stroke="black" /> 
  <line x1="38.828525664933125" y1="166.7848914243416" x2="38.828525664933125" y2="166.7848914243416" stroke-width="1" stroke="black" /> 
  <line x1="38.828525664933125" y1="166.7848914243416" x2="30.168271627088735" y2="171.7848914243416" stroke-width="1" stroke="black" /> 
  <line x1="30.168271627088735" y1="171.7848914243416" x2="30.168271627088735" y2="171.7848914243416" stroke-width="1" stroke="black" /> 
  <line x1="30.168271627088735" y1="171.7848914243416" x2="30.168271627088735" y2="171.7848914243416" stroke-width="1" stroke="black" /> 
  <line x1="30.168271627088735" y1="171.7848914243416" x2="24.432507263578273" y2="179.97641186723152" stroke-width="1" stroke="black" /> 
  <line x1="24.432507263578273" y1="179.97641186723152" x2="18.69674290006781" y2="188.16793231012144" stroke-width="1" stroke="black" /> 
  <line x1="18.69674290006781" y1="188.16793231012144" x2="18.69674290006781" y2="188.16793231012144" stroke-width="1" stroke="black" /> 
  <line x1="30.168271627088735" y1="171.7848914243416" x2="30.168271627088735" y2="171.7848914243416" stroke-width="1" stroke="black" /> 
  <line x1="30.168271627088735" y1="171.7848914243416" x2="20.206324646171282" y2="172.65644885181817" stroke-width="1" stroke="black" /> 
  <line x1="20.206324646171282" y1="172.65644885181817" x2="20.206324646171282" y2="172.65644885181817" stroke-width="1" stroke="black" /> 
  <line x1="47.488779702777514" y1="161.7848914243416" x2="47.488779702777514" y2="161.7848914243416" stroke-width="1" stroke="black" /> 
  <line x1="47.488779702777514" y1="161.7848914243416" x2="41.75301533926705" y2="169.97641186723152" stroke-width="1" stroke="black" /> 
  <line x1="41.75301533926705" y1="169.97641186723152" x2="41.75301533926705" y2="169.97641186723152" stroke-width="1" stroke="black" /> 
  <line x1="41.75301533926705" y1="169.97641186723152" x2="41.75301533926705" y2="169.97641186723152" stroke-width="1" stroke="black" /> 
  <line x1="41.75301533926705" y1="169.97641186723152" x2="41.75301533926705" y2="169.97641186723152" stroke-width="1" stroke="black" /> 
  <line x1="41.75301533926705" y1="169.97641186723152" x2="33.09276130142266" y2="174.97641186723152" stroke-width="1" stroke="black" /> 
  <line x1="33.09276130142266" y1="174.97641186723152" x2="33.09276130142266" y2="174.97641186723152" stroke-width="1" stroke="black" /> 
  <line x1="41.75301533926705" y1="169.97641186723152" x2="41.75301533926705" y2="169.97641186723152" stroke-width="1" stroke="black" /> 
  <line x1="41.75301533926705" y1="169.97641186723152" x2="36.01725097575659" y2="178.16793231012144" stroke-width="1" stroke="black" /> 
  <line x1="36.01725097575659" y1="178.16793231012144" x2="36.01725097575659" y2="178.16793231012144" stroke-width="1" stroke="black" /> 
  <line x1="41.75301533926705" y1="169.97641186723152" x2="41.75301533926705" y2="169.97641186723152" stroke-width="1" stroke="black" /> 
  <line x1="41.75301533926705" y1="169.97641186723152" x2="36.01725097575659" y2="178.16793231012144" stroke-width="1" stroke="black" /> 
  <line x1="36.01725097575659" y1="178.16793231012144" x2="36.01725097575659" y2="178.16793231012144" stroke-width="1" stroke="black" /> 
  <line x1="36.01725097575659" y1="178.16793231012144" x2="36.01725097575659" y2="178.16793231012144" stroke-width="1" stroke="black" /> 
  <line x1="36.01725097575659" y1="178.16793231012144" x2="34.28076919908728" y2="188.01600984024353" stroke-width="1" stroke="black" /> 
  <line x1="34.28076919908728" y1="188.01600984024353" x2="32.54428742241797" y2="197.8640873703656" stroke-width="1" stroke="black" /> 
  <line x1="32.54428742241797" y1="197.8640873703656" x2="32.54428742241797" y2="197.8640873703656" stroke-width="1" stroke="black" /> 
  <line x1="36.01725097575659" y1="178.16793231012144" x2="36.01725097575659" y2="178.16793231012144" stroke-width="1" stroke="black" /> 
  <line x1="36.01725097575659" y1="178.16793231012144" x2="27.3569969379122" y2="183.16793231012144" stroke-width="1" stroke="black" /> 
  <line x1="27.3569969379122" y1="183.16793231012144" x2="27.3569969379122" y2="183.16793231012144" stroke-width="1" stroke="black" /> 
  <line x1="47.488779702777514" y1="161.7848914243416" x2="47.488779702777514" y2="161.7848914243416" stroke-width="1" stroke="black" /> 
  <line x1="47.488779702777514" y1="161.7848914243416" x2="41.75301533926705" y2="169.97641186723152" stroke-width="1" stroke="black" /> 
  <line x1="41.75301533926705" y1="169.97641186723152" x2="36.01725097575659" y2="178.16793231012144" stroke-width="1" stroke="black" /> 
  <line x1="36.01725097575659" y1="178.16793231012144" x2="36.01725097575659" y2="178.16793231012144" stroke-width="1" stroke="black" /> 
  <line x1="36.01725097575659" y1="178.16793231012144" x2="36.01725097575659" y2="178.16793231012144" stroke-width="1" stroke="black" /> 
  <line x1="36.01725097575659" y1="178.16793231012144" x2="34.28076919908728" y2="188.01600984024353" stroke-width="1" stroke="black" /> 
  <line x1="34.28076919908728" y1="188.01600984024353" x2="32.54428742241797" y2="197.8640873703656" stroke-width="1" stroke="black" /> 
  <line x1="32.54428742241797" y1="197.8640873703656" x2="30.80780564574867" y2="207.7121649004877" stroke-width="1" stroke="black" /> 
  <line x1="30.80780564574867" y1="207.7121649004877" x2="30.80780564574867" y2="207.7121649004877" stroke-width="1" stroke="black" /> 
  <line x1="30.80780564574867" y1="207.7121649004877" x2="30.80780564574867" y2="207.7121649004877" stroke-width="1" stroke="black" /> 
  <line x1="30.80780564574867" y1="207.7121649004877" x2="30.80780564574867" y2="207.7121649004877" stroke-width="1" stroke="black" /> 
  <line x1="30.80780564574867" y1="207.7121649004877" x2="25.072041282238207" y2="215.90368534337762" stroke-width="1" stroke="black" /> 
  <line x1="25.072041282238207" y1="215.90368534337762" x2="25.072041282238207" y2="215.90368534337762" stroke-width="1" stroke="black" /> 
  <line x1="30.80780564574867" y1="207.7121649004877" x2="30.80780564574867" y2="207.7121649004877" stroke-width="1" stroke="black" /> 
  <line x1="30.80780564574867" y1="207.7121649004877" x2="29.071323869079364" y2="217.56024243060978" stroke-width="1" stroke="black" /> 
  <line x1="29.071323869079364" y1="217.56024243060978" x2="29.071323869079364" y2="217.56024243060978" stroke-width="1" stroke="black" /> 
  <line x1="30.80780564574867" y1="207.7121649004877" x2="30.80780564574867" y2="207.7121649004877" stroke-width="1" stroke="black" /> 
  <line x1="30.80780564574867" y1="207.7121649004877" x2="29.071323869079364" y2="217.56024243060978" stroke-width="1" stroke="black" /> 
  <line x1="29.071323869079364" y1="217.56024243060978" x2="29.071323869079364" y2="217.56024243060978" stroke-width="1" stroke="black" /> 
  <line x1="29.071323869079364" y1="217.56024243060978" x2="29.071323869079364" y2="217.56024243060978" stroke-width="1" stroke="black" /> 
  <line x1="29.071323869079364" y1="217.56024243060978" x2="31.65951432010457" y2="227.21950069350046" stroke-width="1" stroke="black" /> 
  <line x1="31.65951432010457" y1="227.21950069350046" x2="34.247704771129776" y2="236.87875895639115" stroke-width="1" stroke="black" /> 
  <line x1="34.247704771129776" y1="236.87875895639115" x2="34.247704771129776" y2="236.87875895639115" stroke-width="1" stroke="black" /> 
  <line x1="29.071323869079364" y1="217.56024243060978" x2="29.071323869079364" y2="217.56024243060978" stroke-width="1" stroke="black" /> 
  <line x1="29.071323869079364" y1="217.56024243060978" x2="23.335559505568902" y2="225.7517628734997" stroke-width="1" stroke="black" /> 
  <line x1="23.335559505568902" y1="225.7517628734997" x2="23.335559505568902" y2="225.7517628734997" stroke-width="1" stroke="black" /> 
  <line x1="36.01725097575659" y1="178.16793231012144" x2="36.01725097575659" y2="178.16793231012144" stroke-width="1" stroke="black" /> 
  <line x1="36.01725097575659" y1="178.16793231012144" x2="27.3569969379122" y2="183.16793231012144" stroke-width="1" stroke="black" /> 
  <line x1="27.3569969379122" y1="183.16793231012144" x2="27.3569969379122" y2="183.16793231012144" stroke-width="1" stroke="black" /> 
  <line x1="27.3569969379122" y1="183.16793231012144" x2="27.3569969379122" y2="183.16793231012144" stroke-width="1" stroke="black" /> 
  <line x1="27.3569969379122" y1="183.16793231012144" x2="27.3569969379122" y2="183.16793231012144" stroke-width="1" stroke="black" /> 
  <line x1="27.3569969379122" y1="183.16793231012144" x2="17.395049956994747" y2="184.03948973759802" stroke-width="1" stroke="black" /> 
  <line x1="17.395049956994747" y1="184.03948973759802" x2="17.395049956994747" y2="184.03948973759802" stroke-width="1" stroke="black" /> 
  <line x1="27.3569969379122" y1="183.16793231012144" x2="27.3569969379122" y2="183.16793231012144" stroke-width="1" stroke="black" /> 
  <line x1="27.3569969379122" y1="183.16793231012144" x2="18.69674290006781" y2="188.16793231012144" stroke-width="1" stroke="black" /> 
  <line x1="18.69674290006781" y1="188.16793231012144" x2="18.69674290006781" y2="188.16793231012144" stroke-width="1" stroke="black" /> 
  <line x1="27.3569969379122" y1="183.16793231012144" x2="27.3569969379122" y2="183.16793231012144" stroke-width="1" stroke="black" /> 
  <line x1="27.3569969379122" y1="183.16793231012144" x2="18.69674290006781" y2="188.16793231012144" stroke-width="1" stroke="black" /> 
  <line x1="18.69674290006781" y1="188.16793231012144" x2="18.69674290006781" y2="188.16793231012144" stroke-width="1" stroke="black" /> 
  <line x1="18.69674290006781" y1="188.16793231012144" x2="18.69674290006781" y2="188.16793231012144" stroke-width="1" stroke="black" /> 
  <line x1="18.69674290006781" y1="188.16793231012144" x2="12.960978536557349" y2="196.35945275301137" stroke-width="1" stroke="black" /> 
  <line x1="12.960978536557349" y1="196.35945275301137" x2="7.225214173046887" y2="204.5509731959013" stroke-width="1" stroke="black" /> 
  <line x1="7.225214173046887" y1="204.5509731959013" x2="7.225214173046887" y2="204.5509731959013" stroke-width="1" stroke="black" /> 
  <line x1="18.69674290006781" y1="188.16793231012144" x2="18.69674290006781" y2="188.16793231012144" stroke-width="1" stroke="black" /> 
  <line x1="18.69674290006781" y1="188.16793231012144" x2="8.734795919150356" y2="189.03948973759802" stroke-width="1" stroke="black" /> 
  <line x1="8.734795919150356" y1="189.03948973759802" x2="8.734795919150356" y2="189.03948973759802" stroke-width="1" stroke="black" /> 
  <line x1="58.96030842979844" y1="145.40185053856175" x2="58.96030842979844" y2="145.40185053856175" stroke-width="1" stroke="black" /> 
  <line x1="58.96030842979844" y1="145.40185053856175" x2="53.224544066287976" y2="153.59337098145167" stroke-width="1" stroke="black" /> 
  <line x1="53.224544066287976" y1="153.59337098145167" x2="47.488779702777514" y2="161.7848914243416" stroke-width="1" stroke="black" /> 
  <line x1="47.488779702777514" y1="161.7848914243416" x2="41.75301533926705" y2="169.97641186723152" stroke-width="1" stroke="black" /> 
  <line x1="41.75301533926705" y1="169.97641186723152" x2="36.01725097575659" y2="178.16793231012144" stroke-width="1" stroke="black" /> 
  <line x1="36.01725097575659" y1="178.16793231012144" x2="36.01725097575659" y2="178.16793231012144" stroke-width="1" stroke="black" /> 
  <line x1="36.01725097575659" y1="178.16793231012144" x2="36.01725097575659" y2="178.16793231012144" stroke-width="1" stroke="black" /> 
  <line x1="36.01725097575659" y1="178.16793231012144" x2="34.28076919908728" y2="188.01600984024353" stroke-width="1" stroke="black" /> 
  <line x1="34.28076919908728" y1="188.01600984024353" x2="32.54428742241797" y2="197.8640873703656" stroke-width="1" stroke="black" /> 
  <line x1="32.54428742241797" y1="197.8640873703656" x2="30.80780564574867" y2="207.7121649004877" stroke-width="1" stroke="black" /> 
  <line x1="30.80780564574867" y1="207.7121649004877" x2="29.071323869079364" y2="217.56024243060978" stroke-width="1" stroke="black" /> 
  <line x1="29.071323869079364" y1="217.56024243060978" x2="27.33484209241006" y2="227.40831996073186" stroke-width="1" stroke="black" /> 
  <line x1="27.33484209241006" y1="227.40831996073186" x2="25.598360315740756" y2="237.25639749085394" stroke-width="1" stroke="black" /> 
  <line x1="25.598360315740756" y1="237.25639749085394" x2="25.598360315740756" y2="237.25639749085394" stroke-width="1" stroke="black" /> 
  <line x1="25.598360315740756" y1="237.25639749085394" x2="25.598360315740756" y2="237.25639749085394" stroke-width="1" stroke="black" /> 
  <line x1="25.598360315740756" y1="237.25639749085394" x2="25.598360315740756" y2="237.25639749085394" stroke-width="1" stroke="black" /> 
  <line x1="25.598360315740756" y1="237.25639749085394" x2="19.862595952230294" y2="245.44791793374387" stroke-width="1" stroke="black" /> 
  <line x1="19.862595952230294" y1="245.44791793374387" x2="19.862595952230294" y2="245.44791793374387" stroke-width="1" stroke="black" /> 
  <line x1="19.862595952230294" y1="245.44791793374387" x2="19.862595952230294" y2="245.44791793374387" stroke-width="1" stroke="black" /> 
  <line x1="19.862595952230294" y1="245.44791793374387" x2="19.862595952230294" y2="245.44791793374387" stroke-width="1" stroke="black" /> 
  <line x1="19.862595952230294" y1="245.44791793374387" x2="11.202341914385906" y2="250.44791793374387" stroke-width="1" stroke="black" /> 
  <line x1="11.202341914385906" y1="250.44791793374387" x2="11.202341914385906" y2="250.44791793374387" stroke-width="1" stroke="black" /> 
  <line x1="19.862595952230294" y1="245.44791793374387" x2="19.862595952230294" y2="245.44791793374387" stroke-width="1" stroke="black" /> 
  <line x1="19.862595952230294" y1="245.44791793374387" x2="14.126831588719831" y2="253.6394383766338" stroke-width="1" stroke="black" /> 
  <line x1="14.126831588719831" y1="253.6394383766338" x2="14.126831588719831" y2="253.6394383766338" stroke-width="1" stroke="black" /> 
  <line x1="19.862595952230294" y1="245.44791793374387" x2="19.862595952230294" y2="245.44791793374387" stroke-width="1" stroke="black" /> 
  <line x1="19.862595952230294" y1="245.44791793374387" x2="14.126831588719831" y2="253.6394383766338" stroke-width="1" stroke="black" /> 
  <line x1="14.126831588719831" y1="253.6394383766338" x2="14.126831588719831" y2="253.6394383766338" stroke-width="1" stroke="black" /> 
  <line x1="14.126831588719831" y1="253.6394383766338" x2="14.126831588719831" y2="253.6394383766338" stroke-width="1" stroke="black" /> 
  <line x1="14.126831588719831" y1="253.6394383766338" x2="12.390349812050527" y2="263.48751590675585" stroke-width="1" stroke="black" /> 
  <line x1="12.390349812050527" y1="263.48751590675585" x2="10.653868035381223" y2="273.3355934368779" stroke-width="1" stroke="black" /> 
  <line x1="10.653868035381223" y1="273.3355934368779" x2="10.653868035381223" y2="273.3355934368779" stroke-width="1" stroke="black" /> 
  <line x1="14.126831588719831" y1="253.6394383766338" x2="14.126831588719831" y2="253.6394383766338" stroke-width="1" stroke="black" /> 
  <line x1="14.126831588719831" y1="253.6394383766338" x2="5.466577550875444" y2="258.6394383766338" stroke-width="1" stroke="black" /> 
  <line x1="5.466577550875444" y1="258.6394383766338" x2="5.466577550875444" y2="258.6394383766338" stroke-width="1" stroke="black" /> 
  <line x1="25.598360315740756" y1="237.25639749085394" x2="25.598360315740756" y2="237.25639749085394" stroke-width="1" stroke="black" /> 
  <line x1="25.598360315740756" y1="237.25639749085394" x2="23.86187853907145" y2="247.10447502097603" stroke-width="1" stroke="black" /> 
  <line x1="23.86187853907145" y1="247.10447502097603" x2="23.86187853907145" y2="247.10447502097603" stroke-width="1" stroke="black" /> 
  <line x1="23.86187853907145" y1="247.10447502097603" x2="23.86187853907145" y2="247.10447502097603" stroke-width="1" stroke="black" /> 
  <line x1="23.86187853907145" y1="247.10447502097603" x2="23.86187853907145" y2="247.10447502097603" stroke-width="1" stroke="black" /> 
  <line x1="23.86187853907145" y1="247.10447502097603" x2="18.12611417556099" y2="255.29599546386595" stroke-width="1" stroke="black" /> 
  <line x1="18.12611417556099" y1="255.29599546386595" x2="18.12611417556099" y2="255.29599546386595" stroke-width="1" stroke="black" /> 
  <line x1="23.86187853907145" y1="247.10447502097603" x2="23.86187853907145" y2="247.10447502097603" stroke-width="1" stroke="black" /> 
  <line x1="23.86187853907145" y1="247.10447502097603" x2="22.125396762402147" y2="256.9525525510981" stroke-width="1" stroke="black" /> 
  <line x1="22.125396762402147" y1="256.9525525510981" x2="22.125396762402147" y2="256.9525525510981" stroke-width="1" stroke="black" /> 
  <line x1="23.86187853907145" y1="247.10447502097603" x2="23.86187853907145" y2="247.10447502097603" stroke-width="1" stroke="black" /> 
  <line x1="23.86187853907145" y1="247.10447502097603" x2="22.125396762402147" y2="256.9525525510981" stroke-width="1" stroke="black" /> 
  <line x1="22.125396762402147" y1="256.9525525510981" x2="22.125396762402147" y2="256.9525525510981" stroke-width="1" stroke="black" /> 
  <line x1="22.125396762402147" y1="256.9525525510981" x2="22.125396762402147" y2="256.9525525510981" stroke-width="1" stroke="black" /> 
  <line x1="22.125396762402147" y1="256.9525525510981" x2="24.713587213427353" y2="266.61181081398877" stroke-width="1" stroke="black" /> 
  <line x1="24.713587213427353" y1="266.61181081398877" x2="27.30177766445256" y2="276.2710690768794" stroke-width="1" stroke="black" /> 
  <line x1="27.30177766445256" y1="276.2710690768794" x2="27.30177766445256" y2="276.2710690768794" stroke-width="1" stroke="black" /> 
  <line x1="22.125396762402147" y1="256.9525525510981" x2="22.125396762402147" y2="256.9525525510981" stroke-width="1" stroke="black" /> 
  <line x1="22.125396762402147" y1="256.9525525510981" x2="16.389632398891685" y2="265.144072993988" stroke-width="1" stroke="black" /> 
  <line x1="16.389632398891685" y1="265.144072993988" x2="16.389632398891685" y2="265.144072993988" stroke-width="1" stroke="black" /> 
  <line x1="25.598360315740756" y1="237.25639749085394" x2="25.598360315740756" y2="237.25639749085394" stroke-width="1" stroke="black" /> 
  <line x1="25.598360315740756" y1="237.25639749085394" x2="23.86187853907145" y2="247.10447502097603" stroke-width="1" stroke="black" /> 
  <line x1="23.86187853907145" y1="247.10447502097603" x2="22.125396762402147" y2="256.9525525510981" stroke-width="1" stroke="black" /> 
  <line x1="22.125396762402147" y1="256.9525525510981" x2="22.125396762402147" y2="256.9525525510981" stroke-width="1" stroke="black" /> 
  <line x1="22.125396762402147" y1="256.9525525510981" x2="22.125396762402147" y2="256.9525525510981" stroke-width="1" stroke="black" /> 
  <line x1="22.125396762402147" y1="256.9525525510981" x2="24.713587213427353" y2="266.61181081398877" stroke-width="1" stroke="black" /> 
  <line x1="24.713587213427353" y1="266.61181081398877" x2="27.30177766445256" y2="276.2710690768794" stroke-width="1" stroke="black" /> 
  <line x1="27.30177766445256" y1="276.2710690768794" x2="29.889968115477764" y2="285.9303273397701" stroke-width="1" stroke="black" /> 
  <line x1="29.889968115477764" y1="285.9303273397701" x2="29.889968115477764" y2="285.9303273397701" stroke-width="1" stroke="black" /> 
  <line x1="29.889968115477764" y1="285.9303273397701" x2="29.889968115477764" y2="285.9303273397701" stroke-width="1" stroke="black" /> 
  <line x1="29.889968115477764" y1="285.9303273397701" x2="29.889968115477764" y2="285.9303273397701" stroke-width="1" stroke="black" /> 
  <line x1="29.889968115477764" y1="285.9303273397701" x2="28.15348633880846" y2="295.77840486989214" stroke-width="1" stroke="black" /> 
  <line x1="28.15348633880846" y1="295.77840486989214" x2="28.15348633880846" y2="295.77840486989214" stroke-width="1" stroke="black" /> 
  <line x1="29.889968115477764" y1="285.9303273397701" x2="29.889968115477764" y2="285.9303273397701" stroke-width="1" stroke="black" /> 
  <line x1="29.889968115477764" y1="285.9303273397701" x2="32.47815856650297" y2="295.58958560266075" stroke-width="1" stroke="black" /> 
  <line x1="32.47815856650297" y1="295.58958560266075" x2="32.47815856650297" y2="295.58958560266075" stroke-width="1" stroke="black" /> 
  <line x1="29.889968115477764" y1="285.9303273397701" x2="29.889968115477764" y2="285.9303273397701" stroke-width="1" stroke="black" /> 
  <line x1="29.889968115477764" y1="285.9303273397701" x2="32.47815856650297" y2="295.58958560266075" stroke-width="1" stroke="black" /> 
  <line x1="32.47815856650297" y1="295.58958560266075" x2="32.47815856650297" y2="295.58958560266075" stroke-width="1" stroke="black" /> 
  <line x1="32.47815856650297" y1="295.58958560266075" x2="32.47815856650297" y2="295.58958560266075" stroke-width="1" stroke="black" /> 
  <line x1="32.47815856650297" y1="295.58958560266075" x2="38.90603466336836" y2="303.2500300338505" stroke-width="1" stroke="black" /> 
  <line x1="38.90603466336836" y1="303.2500300338505" x2="45.33391076023375" y2="310.9104744650403" stroke-width="1" stroke="black" /> 
  <line x1="45.33391076023375" y1="310.9104744650403" x2="45.33391076023375" y2="310.9104744650403" stroke-width="1" stroke="black" /> 
  <line x1="32.47815856650297" y1="295.58958560266075" x2="32.47815856650297" y2="295.58958560266075" stroke-width="1" stroke="black" /> 
  <line x1="32.47815856650297" y1="295.58958560266075" x2="30.741676789833665" y2="305.4376631327828" stroke-width="1" stroke="black" /> 
  <line x1="30.741676789833665" y1="305.4376631327828" x2="30.741676789833665" y2="305.4376631327828" stroke-width="1" stroke="black" /> 
  <line x1="22.125396762402147" y1="256.9525525510981" x2="22.125396762402147" y2="256.9525525510981" stroke-width="1" stroke="black" /> 
  <line x1="22.125396762402147" y1="256.9525525510981" x2="16.389632398891685" y2="265.144072993988" stroke-width="1" stroke="black" /> 
  <line x1="16.389632398891685" y1="265.144072993988" x2="16.389632398891685" y2="265.144072993988" stroke-width="1" stroke="black" /> 
  <line x1="16.389632398891685" y1="265.144072993988" x2="16.389632398891685" y2="265.144072993988" stroke-width="1" stroke="black" /> 
  <line x1="16.389632398891685" y1="265.144072993988" x2="16.389632398891685" y2="265.144072993988" stroke-width="1" stroke="black" /> 
  <line x1="16.389632398891685" y1="265.144072993988" x2="7.7293783610472975" y2="270.144072993988" stroke-width="1" stroke="black" /> 
  <line x1="7.7293783610472975" y1="270.144072993988" x2="7.7293783610472975" y2="270.144072993988" stroke-width="1" stroke="black" /> 
  <line x1="16.389632398891685" y1="265.144072993988" x2="16.389632398891685" y2="265.144072993988" stroke-width="1" stroke="black" /> 
  <line x1="16.389632398891685" y1="265.144072993988" x2="10.653868035381223" y2="273.3355934368779" stroke-width="1" stroke="black" /> 
  <line x1="10.653868035381223" y1="273.3355934368779" x2="10.653868035381223" y2="273.3355934368779" stroke-width="1" stroke="black" /> 
  <line x1="16.389632398891685" y1="265.144072993988" x2="16.389632398891685" y2="265.144072993988" stroke-width="1" stroke="black" /> 
  <line x1="16.389632398891685" y1="265.144072993988" x2="10.653868035381223" y2="273.3355934368779" stroke-width="1" stroke="black" /> 
  <line x1="10.653868035381223" y1="273.3355934368779" x2="10.653868035381223" y2="273.3355934368779" stroke-width="1" stroke="black" /> 
  <line x1="10.653868035381223" y1="273.3355934368779" x2="10.653868035381223" y2="273.3355934368779" stroke-width="1" stroke="black" /> 
  <line x1="10.653868035381223" y1="273.3355934368779" x2="8.917386258711918" y2="283.18367096699995" stroke-width="1" stroke="black" /> 
  <line x1="8.917386258711918" y1="283.18367096699995" x2="7.180904482042613" y2="293.031748497122" stroke-width="1" stroke="black" /> 
  <line x1="7.180904482042613" y1="293.031748497122" x2="7.180904482042613" y2="293.031748497122" stroke-width="1" stroke="black" /> 
  <line x1="10.653868035381223" y1="273.3355934368779" x2="10.653868035381223" y2="273.3355934368779" stroke-width="1" stroke="black" /> 
  <line x1="10.653868035381223" y1="273.3355934368779" x2="1.9936139975368352" y2="278.3355934368779" stroke-width="1" stroke="black" /> 
  <line x1="1.9936139975368352" y1="278.3355934368779" x2="1.9936139975368352" y2="278.3355934368779" stroke-width="1" stroke="black" /> 
  <line x1="36.01725097575659" y1="178.16793231012144" x2="36.01725097575659" y2="178.16793231012144" stroke-width="1" stroke="black" /> 
  <line x1="36.01725097575659" y1="178.16793231012144" x2="27.3569969379122" y2="183.16793231012144" stroke-width="1" stroke="black" /> 
  <line x1="27.3569969379122" y1="183.16793231012144" x2="18.69674290006781" y2="188.16793231012144" stroke-width="1" stroke="black" /> 
  <line x1="18.69674290006781" y1="188.16793231012144" x2="18.69674290006781" y2="188.16793231012144" stroke-width="1" stroke="black" /> 
  <line x1="18.69674290006781" y1="188.16793231012144" x2="18.69674290006781" y2="188.16793231012144" stroke-width="1" stroke="black" /> 
  <line x1="18.69674290006781" y1="188.16793231012144" x2="18.69674290006781" y2="188.16793231012144" stroke-width="1" stroke="black" /> 
  <line x1="18.69674290006781" y1="188.16793231012144" x2="8.734795919150356" y2="189.03948973759802" stroke-width="1" stroke="black" /> 
  <line x1="8.734795919150356" y1="189.03948973759802" x2="8.734795919150356" y2="189.03948973759802" stroke-width="1" stroke="black" /> 
  <line x1="8.734795919150356" y1="189.03948973759802" x2="8.734795919150356" y2="189.03948973759802" stroke-width="1" stroke="black" /> 
  <line x1="8.734795919150356" y1="189.03948973759802" x2="8.734795919150356" y2="189.03948973759802" stroke-width="1" stroke="black" /> 
  <line x1="8.734795919150356" y1="189.03948973759802" x2="-0.6621302887087293" y2="185.61928830434132" stroke-width="1" stroke="black" /> 
  <line x1="-0.6621302887087293" y1="185.61928830434132" x2="-0.6621302887087293" y2="185.61928830434132" stroke-width="1" stroke="black" /> 
  <line x1="8.734795919150356" y1="189.03948973759802" x2="8.734795919150356" y2="189.03948973759802" stroke-width="1" stroke="black" /> 
  <line x1="8.734795919150356" y1="189.03948973759802" x2="-1.227151061767099" y2="189.9110471650746" stroke-width="1" stroke="black" /> 
  <line x1="-1.227151061767099" y1="189.9110471650746" x2="-1.227151061767099" y2="189.9110471650746" stroke-width="1" stroke="black" /> 
  <line x1="8.734795919150356" y1="189.03948973759802" x2="8.734795919150356" y2="189.03948973759802" stroke-width="1" stroke="black" /> 
  <line x1="8.734795919150356" y1="189.03948973759802" x2="-1.227151061767099" y2="189.9110471650746" stroke-width="1" stroke="black" /> 
  <line x1="-1.227151061767099" y1="189.9110471650746" x2="-1.227151061767099" y2="189.9110471650746" stroke-width="1" stroke="black" /> 
  <line x1="-1.227151061767099" y1="189.9110471650746" x2="-1.227151061767099" y2="189.9110471650746" stroke-width="1" stroke="black" /> 
  <line x1="-1.227151061767099" y1="189.9110471650746" x2="-9.887405099611486" y2="194.9110471650746" stroke-width="1" stroke="black" /> 
  <line x1="-9.887405099611486" y1="194.9110471650746" x2="-18.547659137455874" y2="199.9110471650746" stroke-width="1" stroke="black" /> 
  <line x1="-18.547659137455874" y1="199.9110471650746" x2="-18.547659137455874" y2="199.9110471650746" stroke-width="1" stroke="black" /> 
  <line x1="-1.227151061767099" y1="189.9110471650746" x2="-1.227151061767099" y2="189.9110471650746" stroke-width="1" stroke="black" /> 
  <line x1="-1.227151061767099" y1="189.9110471650746" x2="-10.624077269626184" y2="186.4908457318179" stroke-width="1" stroke="black" /> 
  <line x1="-10.624077269626184" y1="186.4908457318179" x2="-10.624077269626184" y2="186.4908457318179" stroke-width="1" stroke="black" /> 
  <line x1="18.69674290006781" y1="188.16793231012144" x2="18.69674290006781" y2="188.16793231012144" stroke-width="1" stroke="black" /> 
  <line x1="18.69674290006781" y1="188.16793231012144" x2="10.036488862223424" y2="193.16793231012144" stroke-width="1" stroke="black" /> 
  <line x1="10.036488862223424" y1="193.16793231012144" x2="10.036488862223424" y2="193.16793231012144" stroke-width="1" stroke="black" /> 
  <line x1="10.036488862223424" y1="193.16793231012144" x2="10.036488862223424" y2="193.16793231012144" stroke-width="1" stroke="black" /> 
  <line x1="10.036488862223424" y1="193.16793231012144" x2="10.036488862223424" y2="193.16793231012144" stroke-width="1" stroke="black" /> 
  <line x1="10.036488862223424" y1="193.16793231012144" x2="0.07454188130596862" y2="194.03948973759802" stroke-width="1" stroke="black" /> 
  <line x1="0.07454188130596862" y1="194.03948973759802" x2="0.07454188130596862" y2="194.03948973759802" stroke-width="1" stroke="black" /> 
  <line x1="10.036488862223424" y1="193.16793231012144" x2="10.036488862223424" y2="193.16793231012144" stroke-width="1" stroke="black" /> 
  <line x1="10.036488862223424" y1="193.16793231012144" x2="1.3762348243790363" y2="198.16793231012144" stroke-width="1" stroke="black" /> 
  <line x1="1.3762348243790363" y1="198.16793231012144" x2="1.3762348243790363" y2="198.16793231012144" stroke-width="1" stroke="black" /> 
  <line x1="10.036488862223424" y1="193.16793231012144" x2="10.036488862223424" y2="193.16793231012144" stroke-width="1" stroke="black" /> 
  <line x1="10.036488862223424" y1="193.16793231012144" x2="1.3762348243790363" y2="198.16793231012144" stroke-width="1" stroke="black" /> 
  <line x1="1.3762348243790363" y1="198.16793231012144" x2="1.3762348243790363" y2="198.16793231012144" stroke-width="1" stroke="black" /> 
  <line x1="1.3762348243790363" y1="198.16793231012144" x2="1.3762348243790363" y2="198.16793231012144" stroke-width="1" stroke="black" /> 
  <line x1="1.3762348243790363" y1="198.16793231012144" x2="-4.359529539131425" y2="206.35945275301137" stroke-width="1" stroke="black" /> 
  <line x1="-4.359529539131425" y1="206.35945275301137" x2="-10.095293902641886" y2="214.5509731959013" stroke-width="1" stroke="black" /> 
  <line x1="-10.095293902641886" y1="214.5509731959013" x2="-10.095293902641886" y2="214.5509731959013" stroke-width="1" stroke="black" /> 
  <line x1="1.3762348243790363" y1="198.16793231012144" x2="1.3762348243790363" y2="198.16793231012144" stroke-width="1" stroke="black" /> 
  <line x1="1.3762348243790363" y1="198.16793231012144" x2="-8.585712156538419" y2="199.03948973759802" stroke-width="1" stroke="black" /> 
  <line x1="-8.585712156538419" y1="199.03948973759802" x2="-8.585712156538419" y2="199.03948973759802" stroke-width="1" stroke="black" /> 
  <line x1="18.69674290006781" y1="188.16793231012144" x2="18.69674290006781" y2="188.16793231012144" stroke-width="1" stroke="black" /> 
  <line x1="18.69674290006781" y1="188.16793231012144" x2="10.036488862223424" y2="193.16793231012144" stroke-width="1" stroke="black" /> 
  <line x1="10.036488862223424" y1="193.16793231012144" x2="1.3762348243790363" y2="198.16793231012144" stroke-width="1" stroke="black" /> 
  <line x1="1.3762348243790363" y1="198.16793231012144" x2="1.3762348243790363" y2="198.16793231012144" stroke-width="1" stroke="black" /> 
  <line x1="1.3762348243790363" y1="198.16793231012144" x2="1.3762348243790363" y2="198.16793231012144" stroke-width="1" stroke="black" /> 
  <line x1="1.3762348243790363" y1="198.16793231012144" x2="-4.359529539131425" y2="206.35945275301137" stroke-width="1" stroke="black" /> 
  <line x1="-4.359529539131425" y1="206.35945275301137" x2="-10.095293902641886" y2="214.5509731959013" stroke-width="1" stroke="black" /> 
  <line x1="-10.095293902641886" y1="214.5509731959013" x2="-15.831058266152347" y2="222.74249363879122" stroke-width="1" stroke="black" /> 
  <line x1="-15.831058266152347" y1="222.74249363879122" x2="-15.831058266152347" y2="222.74249363879122" stroke-width="1" stroke="black" /> 
  <line x1="-15.831058266152347" y1="222.74249363879122" x2="-15.831058266152347" y2="222.74249363879122" stroke-width="1" stroke="black" /> 
  <line x1="-15.831058266152347" y1="222.74249363879122" x2="-15.831058266152347" y2="222.74249363879122" stroke-width="1" stroke="black" /> 
  <line x1="-15.831058266152347" y1="222.74249363879122" x2="-24.491312303996736" y2="227.74249363879122" stroke-width="1" stroke="black" /> 
  <line x1="-24.491312303996736" y1="227.74249363879122" x2="-24.491312303996736" y2="227.74249363879122" stroke-width="1" stroke="black" /> 
  <line x1="-15.831058266152347" y1="222.74249363879122" x2="-15.831058266152347" y2="222.74249363879122" stroke-width="1" stroke="black" /> 
  <line x1="-15.831058266152347" y1="222.74249363879122" x2="-21.56682262966281" y2="230.93401408168114" stroke-width="1" stroke="black" /> 
  <line x1="-21.56682262966281" y1="230.93401408168114" x2="-21.56682262966281" y2="230.93401408168114" stroke-width="1" stroke="black" /> 
  <line x1="-15.831058266152347" y1="222.74249363879122" x2="-15.831058266152347" y2="222.74249363879122" stroke-width="1" stroke="black" /> 
  <line x1="-15.831058266152347" y1="222.74249363879122" x2="-21.56682262966281" y2="230.93401408168114" stroke-width="1" stroke="black" /> 
  <line x1="-21.56682262966281" y1="230.93401408168114" x2="-21.56682262966281" y2="230.93401408168114" stroke-width="1" stroke="black" /> 
  <line x1="-21.56682262966281" y1="230.93401408168114" x2="-21.56682262966281" y2="230.93401408168114" stroke-width="1" stroke="black" /> 
  <line x1="-21.56682262966281" y1="230.93401408168114" x2="-23.303304406332114" y2="240.78209161180322" stroke-width="1" stroke="black" /> 
  <line x1="-23.303304406332114" y1="240.78209161180322" x2="-25.039786183001418" y2="250.6301691419253" stroke-width="1" stroke="black" /> 
  <line x1="-25.039786183001418" y1="250.6301691419253" x2="-25.039786183001418" y2="250.6301691419253" stroke-width="1" stroke="black" /> 
  <line x1="-21.56682262966281" y1="230.93401408168114" x2="-21.56682262966281" y2="230.93401408168114" stroke-width="1" stroke="black" /> 
  <line x1="-21.56682262966281" y1="230.93401408168114" x2="-30.2270766675072" y2="235.93401408168114" stroke-width="1" stroke="black" /> 
  <line x1="-30.2270766675072" y1="235.93401408168114" x2="-30.2270766675072" y2="235.93401408168114" stroke-width="1" stroke="black" /> 
  <line x1="1.3762348243790363" y1="198.16793231012144" x2="1.3762348243790363" y2="198.16793231012144" stroke-width="1" stroke="black" /> 
  <line x1="1.3762348243790363" y1="198.16793231012144" x2="-8.585712156538419" y2="199.03948973759802" stroke-width="1" stroke="black" /> 
  <line x1="-8.585712156538419" y1="199.03948973759802" x2="-8.585712156538419" y2="199.03948973759802" stroke-width="1" stroke="black" /> 
  <line x1="-8.585712156538419" y1="199.03948973759802" x2="-8.585712156538419" y2="199.03948973759802" stroke-width="1" stroke="black" /> 
  <line x1="-8.585712156538419" y1="199.03948973759802" x2="-8.585712156538419" y2="199.03948973759802" stroke-width="1" stroke="black" /> 
  <line x1="-8.585712156538419" y1="199.03948973759802" x2="-17.982638364397502" y2="195.61928830434132" stroke-width="1" stroke="black" /> 
  <line x1="-17.982638364397502" y1="195.61928830434132" x2="-17.982638364397502" y2="195.61928830434132" stroke-width="1" stroke="black" /> 
  <line x1="-8.585712156538419" y1="199.03948973759802" x2="-8.585712156538419" y2="199.03948973759802" stroke-width="1" stroke="black" /> 
  <line x1="-8.585712156538419" y1="199.03948973759802" x2="-18.547659137455874" y2="199.9110471650746" stroke-width="1" stroke="black" /> 
  <line x1="-18.547659137455874" y1="199.9110471650746" x2="-18.547659137455874" y2="199.9110471650746" stroke-width="1" stroke="black" /> 
  <line x1="-8.585712156538419" y1="199.03948973759802" x2="-8.585712156538419" y2="199.03948973759802" stroke-width="1" stroke="black" /> 
  <line x1="-8.585712156538419" y1="199.03948973759802" x2="-18.547659137455874" y2="199.9110471650746" stroke-width="1" stroke="black" /> 
  <line x1="-18.547659137455874" y1="199.9110471650746" x2="-18.547659137455874" y2="199.9110471650746" stroke-width="1" stroke="black" /> 
  <line x1="-18.547659137455874" y1="199.9110471650746" x2="-18.547659137455874" y2="199.9110471650746" stroke-width="1" stroke="black" /> 
  <line x1="-18.547659137455874" y1="199.9110471650746" x2="-27.207913175300263" y2="204.9110471650746" stroke-width="1" stroke="black" /> 
  <line x1="-27.207913175300263" y1="204.9110471650746" x2="-35.86816721314465" y2="209.9110471650746" stroke-width="1" stroke="black" /> 
  <line x1="-35.86816721314465" y1="209.9110471650746" x2="-35.86816721314465" y2="209.9110471650746" stroke-width="1" stroke="black" /> 
  <line x1="-18.547659137455874" y1="199.9110471650746" x2="-18.547659137455874" y2="199.9110471650746" stroke-width="1" stroke="black" /> 
  <line x1="-18.547659137455874" y1="199.9110471650746" x2="-27.94458534531496" y2="196.4908457318179" stroke-width="1" stroke="black" /> 
</svg>